<mxfile host="app.diagrams.net" modified="2021-01-23T17:41:35.005Z" agent="5.0 (Windows NT 6.1; Win64; x64) AppleWebKit/537.36 (KHTML, like Gecko) Chrome/87.0.4280.141 Safari/537.36" etag="bvD2QY2Fpsq4i9jp-gRL" version="14.2.6" type="github">
  <diagram id="C5RBs43oDa-KdzZeNtuy" name="Page-1">
    <mxGraphModel dx="1695" dy="450" grid="1" gridSize="10" guides="1" tooltips="1" connect="1" arrows="1" fold="1" page="1" pageScale="1" pageWidth="827" pageHeight="1169" math="0" shadow="0">
      <root>
        <mxCell id="WIyWlLk6GJQsqaUBKTNV-0" />
        <mxCell id="WIyWlLk6GJQsqaUBKTNV-1" parent="WIyWlLk6GJQsqaUBKTNV-0" />
        <mxCell id="WIyWlLk6GJQsqaUBKTNV-2" value="" style="rounded=0;html=1;jettySize=auto;orthogonalLoop=1;fontSize=11;endArrow=block;endFill=0;endSize=8;strokeWidth=1;shadow=0;labelBackgroundColor=none;edgeStyle=orthogonalEdgeStyle;" parent="WIyWlLk6GJQsqaUBKTNV-1" source="WIyWlLk6GJQsqaUBKTNV-3" target="WIyWlLk6GJQsqaUBKTNV-6" edge="1">
          <mxGeometry relative="1" as="geometry" />
        </mxCell>
        <mxCell id="WIyWlLk6GJQsqaUBKTNV-3" value="Pizza delivery" style="rounded=1;whiteSpace=wrap;html=1;fontSize=12;glass=0;strokeWidth=1;shadow=0;" parent="WIyWlLk6GJQsqaUBKTNV-1" vertex="1">
          <mxGeometry x="400" y="50" width="120" height="40" as="geometry" />
        </mxCell>
        <mxCell id="NSI2ygP52UiWUDxso2s_-4" style="edgeStyle=orthogonalEdgeStyle;rounded=0;orthogonalLoop=1;jettySize=auto;html=1;entryX=0.5;entryY=0;entryDx=0;entryDy=0;exitX=0.5;exitY=1;exitDx=0;exitDy=0;" edge="1" parent="WIyWlLk6GJQsqaUBKTNV-1" source="WIyWlLk6GJQsqaUBKTNV-6" target="NSI2ygP52UiWUDxso2s_-14">
          <mxGeometry relative="1" as="geometry">
            <mxPoint x="210" y="260" as="targetPoint" />
            <Array as="points">
              <mxPoint x="-160" y="220" />
            </Array>
          </mxGeometry>
        </mxCell>
        <mxCell id="NSI2ygP52UiWUDxso2s_-6" style="edgeStyle=orthogonalEdgeStyle;rounded=0;orthogonalLoop=1;jettySize=auto;html=1;entryX=0.5;entryY=0;entryDx=0;entryDy=0;" edge="1" parent="WIyWlLk6GJQsqaUBKTNV-1" source="WIyWlLk6GJQsqaUBKTNV-6" target="NSI2ygP52UiWUDxso2s_-18">
          <mxGeometry relative="1" as="geometry">
            <mxPoint x="910" y="250" as="targetPoint" />
            <Array as="points">
              <mxPoint x="1050" y="220" />
            </Array>
          </mxGeometry>
        </mxCell>
        <mxCell id="NSI2ygP52UiWUDxso2s_-8" style="edgeStyle=orthogonalEdgeStyle;rounded=0;orthogonalLoop=1;jettySize=auto;html=1;entryX=0.5;entryY=0;entryDx=0;entryDy=0;" edge="1" parent="WIyWlLk6GJQsqaUBKTNV-1" source="WIyWlLk6GJQsqaUBKTNV-6">
          <mxGeometry relative="1" as="geometry">
            <mxPoint x="460" y="260" as="targetPoint" />
          </mxGeometry>
        </mxCell>
        <mxCell id="WIyWlLk6GJQsqaUBKTNV-6" value="pizza size" style="rhombus;whiteSpace=wrap;html=1;shadow=0;fontFamily=Helvetica;fontSize=12;align=center;strokeWidth=1;spacing=6;spacingTop=-4;" parent="WIyWlLk6GJQsqaUBKTNV-1" vertex="1">
          <mxGeometry x="410" y="140" width="100" height="80" as="geometry" />
        </mxCell>
        <mxCell id="NSI2ygP52UiWUDxso2s_-9" value="S" style="text;html=1;align=center;verticalAlign=middle;resizable=0;points=[];autosize=1;" vertex="1" parent="WIyWlLk6GJQsqaUBKTNV-1">
          <mxGeometry x="-160" y="230" width="20" height="20" as="geometry" />
        </mxCell>
        <mxCell id="NSI2ygP52UiWUDxso2s_-10" value="M" style="text;html=1;align=center;verticalAlign=middle;resizable=0;points=[];autosize=1;" vertex="1" parent="WIyWlLk6GJQsqaUBKTNV-1">
          <mxGeometry x="465" y="230" width="30" height="20" as="geometry" />
        </mxCell>
        <mxCell id="NSI2ygP52UiWUDxso2s_-11" value="L" style="text;html=1;align=center;verticalAlign=middle;resizable=0;points=[];autosize=1;" vertex="1" parent="WIyWlLk6GJQsqaUBKTNV-1">
          <mxGeometry x="1050" y="230" width="20" height="20" as="geometry" />
        </mxCell>
        <mxCell id="NSI2ygP52UiWUDxso2s_-21" style="edgeStyle=orthogonalEdgeStyle;rounded=0;orthogonalLoop=1;jettySize=auto;html=1;entryX=0.5;entryY=0;entryDx=0;entryDy=0;" edge="1" parent="WIyWlLk6GJQsqaUBKTNV-1" target="NSI2ygP52UiWUDxso2s_-35">
          <mxGeometry relative="1" as="geometry">
            <mxPoint x="-240" y="360" as="targetPoint" />
            <mxPoint x="-200" y="300" as="sourcePoint" />
          </mxGeometry>
        </mxCell>
        <mxCell id="NSI2ygP52UiWUDxso2s_-52" style="edgeStyle=orthogonalEdgeStyle;rounded=0;orthogonalLoop=1;jettySize=auto;html=1;entryX=0.5;entryY=0;entryDx=0;entryDy=0;" edge="1" parent="WIyWlLk6GJQsqaUBKTNV-1" source="NSI2ygP52UiWUDxso2s_-14" target="NSI2ygP52UiWUDxso2s_-41">
          <mxGeometry relative="1" as="geometry" />
        </mxCell>
        <mxCell id="NSI2ygP52UiWUDxso2s_-14" value="Add pepperoni +$2" style="rhombus;whiteSpace=wrap;html=1;" vertex="1" parent="WIyWlLk6GJQsqaUBKTNV-1">
          <mxGeometry x="-200" y="260" width="80" height="80" as="geometry" />
        </mxCell>
        <mxCell id="NSI2ygP52UiWUDxso2s_-23" style="edgeStyle=orthogonalEdgeStyle;rounded=0;orthogonalLoop=1;jettySize=auto;html=1;entryX=0.5;entryY=0;entryDx=0;entryDy=0;" edge="1" parent="WIyWlLk6GJQsqaUBKTNV-1" source="NSI2ygP52UiWUDxso2s_-15" target="NSI2ygP52UiWUDxso2s_-42">
          <mxGeometry relative="1" as="geometry">
            <mxPoint x="200" y="370" as="targetPoint" />
            <Array as="points">
              <mxPoint x="310" y="305" />
            </Array>
          </mxGeometry>
        </mxCell>
        <mxCell id="NSI2ygP52UiWUDxso2s_-61" style="edgeStyle=orthogonalEdgeStyle;rounded=0;orthogonalLoop=1;jettySize=auto;html=1;entryX=0.5;entryY=0;entryDx=0;entryDy=0;" edge="1" parent="WIyWlLk6GJQsqaUBKTNV-1" source="NSI2ygP52UiWUDxso2s_-15" target="NSI2ygP52UiWUDxso2s_-43">
          <mxGeometry relative="1" as="geometry" />
        </mxCell>
        <mxCell id="NSI2ygP52UiWUDxso2s_-15" value="Add pepperoni +$3" style="rhombus;whiteSpace=wrap;html=1;" vertex="1" parent="WIyWlLk6GJQsqaUBKTNV-1">
          <mxGeometry x="412.5" y="260" width="95" height="90" as="geometry" />
        </mxCell>
        <mxCell id="NSI2ygP52UiWUDxso2s_-29" style="edgeStyle=orthogonalEdgeStyle;rounded=0;orthogonalLoop=1;jettySize=auto;html=1;entryX=0.5;entryY=0;entryDx=0;entryDy=0;" edge="1" parent="WIyWlLk6GJQsqaUBKTNV-1" source="NSI2ygP52UiWUDxso2s_-18" target="NSI2ygP52UiWUDxso2s_-44">
          <mxGeometry relative="1" as="geometry">
            <mxPoint x="915" y="350" as="targetPoint" />
          </mxGeometry>
        </mxCell>
        <mxCell id="NSI2ygP52UiWUDxso2s_-64" style="edgeStyle=orthogonalEdgeStyle;rounded=0;orthogonalLoop=1;jettySize=auto;html=1;" edge="1" parent="WIyWlLk6GJQsqaUBKTNV-1" source="NSI2ygP52UiWUDxso2s_-18" target="NSI2ygP52UiWUDxso2s_-45">
          <mxGeometry relative="1" as="geometry" />
        </mxCell>
        <mxCell id="NSI2ygP52UiWUDxso2s_-18" value="Add pepperoni +$3" style="rhombus;whiteSpace=wrap;html=1;" vertex="1" parent="WIyWlLk6GJQsqaUBKTNV-1">
          <mxGeometry x="1000" y="260" width="100" height="90" as="geometry" />
        </mxCell>
        <mxCell id="NSI2ygP52UiWUDxso2s_-25" value="No" style="text;html=1;align=center;verticalAlign=middle;resizable=0;points=[];autosize=1;" vertex="1" parent="WIyWlLk6GJQsqaUBKTNV-1">
          <mxGeometry x="-310" y="320" width="30" height="20" as="geometry" />
        </mxCell>
        <mxCell id="NSI2ygP52UiWUDxso2s_-26" value="Yes" style="text;html=1;align=center;verticalAlign=middle;resizable=0;points=[];autosize=1;" vertex="1" parent="WIyWlLk6GJQsqaUBKTNV-1">
          <mxGeometry x="-30" y="320" width="40" height="20" as="geometry" />
        </mxCell>
        <mxCell id="NSI2ygP52UiWUDxso2s_-27" value="No" style="text;html=1;align=center;verticalAlign=middle;resizable=0;points=[];autosize=1;" vertex="1" parent="WIyWlLk6GJQsqaUBKTNV-1">
          <mxGeometry x="280" y="320" width="30" height="20" as="geometry" />
        </mxCell>
        <mxCell id="NSI2ygP52UiWUDxso2s_-28" value="Yes" style="text;html=1;align=center;verticalAlign=middle;resizable=0;points=[];autosize=1;" vertex="1" parent="WIyWlLk6GJQsqaUBKTNV-1">
          <mxGeometry x="600" y="320" width="40" height="20" as="geometry" />
        </mxCell>
        <mxCell id="NSI2ygP52UiWUDxso2s_-30" value="Yes" style="text;html=1;align=center;verticalAlign=middle;resizable=0;points=[];autosize=1;" vertex="1" parent="WIyWlLk6GJQsqaUBKTNV-1">
          <mxGeometry x="1196" y="320" width="40" height="20" as="geometry" />
        </mxCell>
        <mxCell id="NSI2ygP52UiWUDxso2s_-33" value="No" style="text;html=1;align=center;verticalAlign=middle;resizable=0;points=[];autosize=1;" vertex="1" parent="WIyWlLk6GJQsqaUBKTNV-1">
          <mxGeometry x="885" y="320" width="30" height="20" as="geometry" />
        </mxCell>
        <mxCell id="NSI2ygP52UiWUDxso2s_-69" style="edgeStyle=orthogonalEdgeStyle;rounded=0;orthogonalLoop=1;jettySize=auto;html=1;entryX=0.5;entryY=0;entryDx=0;entryDy=0;" edge="1" parent="WIyWlLk6GJQsqaUBKTNV-1" source="NSI2ygP52UiWUDxso2s_-35" target="NSI2ygP52UiWUDxso2s_-46">
          <mxGeometry relative="1" as="geometry" />
        </mxCell>
        <mxCell id="NSI2ygP52UiWUDxso2s_-71" style="edgeStyle=orthogonalEdgeStyle;rounded=0;orthogonalLoop=1;jettySize=auto;html=1;entryX=0.5;entryY=0;entryDx=0;entryDy=0;" edge="1" parent="WIyWlLk6GJQsqaUBKTNV-1" source="NSI2ygP52UiWUDxso2s_-35" target="NSI2ygP52UiWUDxso2s_-47">
          <mxGeometry relative="1" as="geometry">
            <Array as="points">
              <mxPoint x="-225" y="410" />
            </Array>
          </mxGeometry>
        </mxCell>
        <mxCell id="NSI2ygP52UiWUDxso2s_-35" value="extra cheese +$1" style="rhombus;whiteSpace=wrap;html=1;" vertex="1" parent="WIyWlLk6GJQsqaUBKTNV-1">
          <mxGeometry x="-350" y="370" width="80" height="80" as="geometry" />
        </mxCell>
        <mxCell id="NSI2ygP52UiWUDxso2s_-72" style="edgeStyle=orthogonalEdgeStyle;rounded=0;orthogonalLoop=1;jettySize=auto;html=1;entryX=0.5;entryY=0;entryDx=0;entryDy=0;" edge="1" parent="WIyWlLk6GJQsqaUBKTNV-1" source="NSI2ygP52UiWUDxso2s_-41" target="NSI2ygP52UiWUDxso2s_-55">
          <mxGeometry relative="1" as="geometry" />
        </mxCell>
        <mxCell id="NSI2ygP52UiWUDxso2s_-73" style="edgeStyle=orthogonalEdgeStyle;rounded=0;orthogonalLoop=1;jettySize=auto;html=1;entryX=0.5;entryY=0;entryDx=0;entryDy=0;" edge="1" parent="WIyWlLk6GJQsqaUBKTNV-1" source="NSI2ygP52UiWUDxso2s_-41" target="NSI2ygP52UiWUDxso2s_-56">
          <mxGeometry relative="1" as="geometry" />
        </mxCell>
        <mxCell id="NSI2ygP52UiWUDxso2s_-41" value="extra cheese +$1" style="rhombus;whiteSpace=wrap;html=1;" vertex="1" parent="WIyWlLk6GJQsqaUBKTNV-1">
          <mxGeometry x="-70" y="370" width="80" height="80" as="geometry" />
        </mxCell>
        <mxCell id="NSI2ygP52UiWUDxso2s_-74" style="edgeStyle=orthogonalEdgeStyle;rounded=0;orthogonalLoop=1;jettySize=auto;html=1;entryX=0.5;entryY=0;entryDx=0;entryDy=0;" edge="1" parent="WIyWlLk6GJQsqaUBKTNV-1" source="NSI2ygP52UiWUDxso2s_-42" target="NSI2ygP52UiWUDxso2s_-57">
          <mxGeometry relative="1" as="geometry" />
        </mxCell>
        <mxCell id="NSI2ygP52UiWUDxso2s_-75" style="edgeStyle=orthogonalEdgeStyle;rounded=0;orthogonalLoop=1;jettySize=auto;html=1;entryX=0.5;entryY=0;entryDx=0;entryDy=0;" edge="1" parent="WIyWlLk6GJQsqaUBKTNV-1" source="NSI2ygP52UiWUDxso2s_-42" target="NSI2ygP52UiWUDxso2s_-58">
          <mxGeometry relative="1" as="geometry" />
        </mxCell>
        <mxCell id="NSI2ygP52UiWUDxso2s_-42" value="extra cheese +$1" style="rhombus;whiteSpace=wrap;html=1;" vertex="1" parent="WIyWlLk6GJQsqaUBKTNV-1">
          <mxGeometry x="270" y="370" width="80" height="80" as="geometry" />
        </mxCell>
        <mxCell id="NSI2ygP52UiWUDxso2s_-76" style="edgeStyle=orthogonalEdgeStyle;rounded=0;orthogonalLoop=1;jettySize=auto;html=1;entryX=0.5;entryY=0;entryDx=0;entryDy=0;" edge="1" parent="WIyWlLk6GJQsqaUBKTNV-1" source="NSI2ygP52UiWUDxso2s_-43" target="NSI2ygP52UiWUDxso2s_-59">
          <mxGeometry relative="1" as="geometry">
            <Array as="points">
              <mxPoint x="525" y="410" />
            </Array>
          </mxGeometry>
        </mxCell>
        <mxCell id="NSI2ygP52UiWUDxso2s_-77" style="edgeStyle=orthogonalEdgeStyle;rounded=0;orthogonalLoop=1;jettySize=auto;html=1;entryX=0.5;entryY=0;entryDx=0;entryDy=0;" edge="1" parent="WIyWlLk6GJQsqaUBKTNV-1" source="NSI2ygP52UiWUDxso2s_-43" target="NSI2ygP52UiWUDxso2s_-60">
          <mxGeometry relative="1" as="geometry" />
        </mxCell>
        <mxCell id="NSI2ygP52UiWUDxso2s_-43" value="extra cheese +$1" style="rhombus;whiteSpace=wrap;html=1;" vertex="1" parent="WIyWlLk6GJQsqaUBKTNV-1">
          <mxGeometry x="560" y="370" width="80" height="80" as="geometry" />
        </mxCell>
        <mxCell id="NSI2ygP52UiWUDxso2s_-79" style="edgeStyle=orthogonalEdgeStyle;rounded=0;orthogonalLoop=1;jettySize=auto;html=1;" edge="1" parent="WIyWlLk6GJQsqaUBKTNV-1" source="NSI2ygP52UiWUDxso2s_-44" target="NSI2ygP52UiWUDxso2s_-65">
          <mxGeometry relative="1" as="geometry">
            <mxPoint x="800" y="460" as="targetPoint" />
          </mxGeometry>
        </mxCell>
        <mxCell id="NSI2ygP52UiWUDxso2s_-80" style="edgeStyle=orthogonalEdgeStyle;rounded=0;orthogonalLoop=1;jettySize=auto;html=1;" edge="1" parent="WIyWlLk6GJQsqaUBKTNV-1" source="NSI2ygP52UiWUDxso2s_-44" target="NSI2ygP52UiWUDxso2s_-66">
          <mxGeometry relative="1" as="geometry" />
        </mxCell>
        <mxCell id="NSI2ygP52UiWUDxso2s_-44" value="extra cheese +$1" style="rhombus;whiteSpace=wrap;html=1;" vertex="1" parent="WIyWlLk6GJQsqaUBKTNV-1">
          <mxGeometry x="845" y="370" width="80" height="80" as="geometry" />
        </mxCell>
        <mxCell id="NSI2ygP52UiWUDxso2s_-81" style="edgeStyle=orthogonalEdgeStyle;rounded=0;orthogonalLoop=1;jettySize=auto;html=1;" edge="1" parent="WIyWlLk6GJQsqaUBKTNV-1" source="NSI2ygP52UiWUDxso2s_-45" target="NSI2ygP52UiWUDxso2s_-67">
          <mxGeometry relative="1" as="geometry" />
        </mxCell>
        <mxCell id="NSI2ygP52UiWUDxso2s_-82" style="edgeStyle=orthogonalEdgeStyle;rounded=0;orthogonalLoop=1;jettySize=auto;html=1;entryX=0.5;entryY=0;entryDx=0;entryDy=0;" edge="1" parent="WIyWlLk6GJQsqaUBKTNV-1" source="NSI2ygP52UiWUDxso2s_-45" target="NSI2ygP52UiWUDxso2s_-68">
          <mxGeometry relative="1" as="geometry" />
        </mxCell>
        <mxCell id="NSI2ygP52UiWUDxso2s_-45" value="extra cheese +$1" style="rhombus;whiteSpace=wrap;html=1;" vertex="1" parent="WIyWlLk6GJQsqaUBKTNV-1">
          <mxGeometry x="1156" y="370" width="80" height="80" as="geometry" />
        </mxCell>
        <mxCell id="NSI2ygP52UiWUDxso2s_-46" value="$15" style="rounded=1;whiteSpace=wrap;html=1;" vertex="1" parent="WIyWlLk6GJQsqaUBKTNV-1">
          <mxGeometry x="-430" y="470" width="70" height="40" as="geometry" />
        </mxCell>
        <mxCell id="NSI2ygP52UiWUDxso2s_-47" value="$16" style="rounded=1;whiteSpace=wrap;html=1;" vertex="1" parent="WIyWlLk6GJQsqaUBKTNV-1">
          <mxGeometry x="-260" y="470" width="70" height="40" as="geometry" />
        </mxCell>
        <mxCell id="NSI2ygP52UiWUDxso2s_-55" value="$17" style="rounded=1;whiteSpace=wrap;html=1;" vertex="1" parent="WIyWlLk6GJQsqaUBKTNV-1">
          <mxGeometry x="-145" y="470" width="70" height="40" as="geometry" />
        </mxCell>
        <mxCell id="NSI2ygP52UiWUDxso2s_-56" value="$18" style="rounded=1;whiteSpace=wrap;html=1;" vertex="1" parent="WIyWlLk6GJQsqaUBKTNV-1">
          <mxGeometry x="15" y="470" width="70" height="40" as="geometry" />
        </mxCell>
        <mxCell id="NSI2ygP52UiWUDxso2s_-57" value="$20" style="rounded=1;whiteSpace=wrap;html=1;" vertex="1" parent="WIyWlLk6GJQsqaUBKTNV-1">
          <mxGeometry x="190" y="470" width="70" height="40" as="geometry" />
        </mxCell>
        <mxCell id="NSI2ygP52UiWUDxso2s_-58" value="$21" style="rounded=1;whiteSpace=wrap;html=1;" vertex="1" parent="WIyWlLk6GJQsqaUBKTNV-1">
          <mxGeometry x="360" y="470" width="70" height="40" as="geometry" />
        </mxCell>
        <mxCell id="NSI2ygP52UiWUDxso2s_-59" value="$23" style="rounded=1;whiteSpace=wrap;html=1;" vertex="1" parent="WIyWlLk6GJQsqaUBKTNV-1">
          <mxGeometry x="490" y="470" width="70" height="40" as="geometry" />
        </mxCell>
        <mxCell id="NSI2ygP52UiWUDxso2s_-60" value="$24" style="rounded=1;whiteSpace=wrap;html=1;" vertex="1" parent="WIyWlLk6GJQsqaUBKTNV-1">
          <mxGeometry x="645" y="470" width="70" height="40" as="geometry" />
        </mxCell>
        <mxCell id="NSI2ygP52UiWUDxso2s_-65" value="$25" style="rounded=1;whiteSpace=wrap;html=1;" vertex="1" parent="WIyWlLk6GJQsqaUBKTNV-1">
          <mxGeometry x="770" y="470" width="70" height="40" as="geometry" />
        </mxCell>
        <mxCell id="NSI2ygP52UiWUDxso2s_-66" value="$26" style="rounded=1;whiteSpace=wrap;html=1;" vertex="1" parent="WIyWlLk6GJQsqaUBKTNV-1">
          <mxGeometry x="930" y="470" width="70" height="40" as="geometry" />
        </mxCell>
        <mxCell id="NSI2ygP52UiWUDxso2s_-67" value="$28" style="rounded=1;whiteSpace=wrap;html=1;" vertex="1" parent="WIyWlLk6GJQsqaUBKTNV-1">
          <mxGeometry x="1085" y="470" width="70" height="40" as="geometry" />
        </mxCell>
        <mxCell id="NSI2ygP52UiWUDxso2s_-68" value="$29" style="rounded=1;whiteSpace=wrap;html=1;" vertex="1" parent="WIyWlLk6GJQsqaUBKTNV-1">
          <mxGeometry x="1240" y="470" width="70" height="40" as="geometry" />
        </mxCell>
        <mxCell id="NSI2ygP52UiWUDxso2s_-83" value="Yes" style="text;html=1;align=center;verticalAlign=middle;resizable=0;points=[];autosize=1;" vertex="1" parent="WIyWlLk6GJQsqaUBKTNV-1">
          <mxGeometry x="-230" y="430" width="40" height="20" as="geometry" />
        </mxCell>
        <mxCell id="NSI2ygP52UiWUDxso2s_-84" value="No" style="text;html=1;align=center;verticalAlign=middle;resizable=0;points=[];autosize=1;" vertex="1" parent="WIyWlLk6GJQsqaUBKTNV-1">
          <mxGeometry x="-390" y="430" width="30" height="20" as="geometry" />
        </mxCell>
        <mxCell id="NSI2ygP52UiWUDxso2s_-85" value="Yes" style="text;html=1;align=center;verticalAlign=middle;resizable=0;points=[];autosize=1;" vertex="1" parent="WIyWlLk6GJQsqaUBKTNV-1">
          <mxGeometry x="45" y="430" width="40" height="20" as="geometry" />
        </mxCell>
        <mxCell id="NSI2ygP52UiWUDxso2s_-86" value="No" style="text;html=1;align=center;verticalAlign=middle;resizable=0;points=[];autosize=1;" vertex="1" parent="WIyWlLk6GJQsqaUBKTNV-1">
          <mxGeometry x="-105" y="430" width="30" height="20" as="geometry" />
        </mxCell>
        <mxCell id="NSI2ygP52UiWUDxso2s_-87" value="Yes" style="text;html=1;align=center;verticalAlign=middle;resizable=0;points=[];autosize=1;" vertex="1" parent="WIyWlLk6GJQsqaUBKTNV-1">
          <mxGeometry x="390" y="430" width="40" height="20" as="geometry" />
        </mxCell>
        <mxCell id="NSI2ygP52UiWUDxso2s_-88" value="No" style="text;html=1;align=center;verticalAlign=middle;resizable=0;points=[];autosize=1;" vertex="1" parent="WIyWlLk6GJQsqaUBKTNV-1">
          <mxGeometry x="220" y="430" width="30" height="20" as="geometry" />
        </mxCell>
        <mxCell id="NSI2ygP52UiWUDxso2s_-89" value="Yes" style="text;html=1;align=center;verticalAlign=middle;resizable=0;points=[];autosize=1;" vertex="1" parent="WIyWlLk6GJQsqaUBKTNV-1">
          <mxGeometry x="675" y="430" width="40" height="20" as="geometry" />
        </mxCell>
        <mxCell id="NSI2ygP52UiWUDxso2s_-90" value="No" style="text;html=1;align=center;verticalAlign=middle;resizable=0;points=[];autosize=1;" vertex="1" parent="WIyWlLk6GJQsqaUBKTNV-1">
          <mxGeometry x="520" y="430" width="30" height="20" as="geometry" />
        </mxCell>
        <mxCell id="NSI2ygP52UiWUDxso2s_-91" value="Yes" style="text;html=1;align=center;verticalAlign=middle;resizable=0;points=[];autosize=1;" vertex="1" parent="WIyWlLk6GJQsqaUBKTNV-1">
          <mxGeometry x="960" y="430" width="40" height="20" as="geometry" />
        </mxCell>
        <mxCell id="NSI2ygP52UiWUDxso2s_-92" value="No" style="text;html=1;align=center;verticalAlign=middle;resizable=0;points=[];autosize=1;" vertex="1" parent="WIyWlLk6GJQsqaUBKTNV-1">
          <mxGeometry x="810" y="430" width="30" height="20" as="geometry" />
        </mxCell>
        <mxCell id="NSI2ygP52UiWUDxso2s_-93" value="Yes" style="text;html=1;align=center;verticalAlign=middle;resizable=0;points=[];autosize=1;" vertex="1" parent="WIyWlLk6GJQsqaUBKTNV-1">
          <mxGeometry x="1270" y="430" width="40" height="20" as="geometry" />
        </mxCell>
        <mxCell id="NSI2ygP52UiWUDxso2s_-94" value="No" style="text;html=1;align=center;verticalAlign=middle;resizable=0;points=[];autosize=1;" vertex="1" parent="WIyWlLk6GJQsqaUBKTNV-1">
          <mxGeometry x="1120" y="430" width="30" height="20" as="geometry" />
        </mxCell>
      </root>
    </mxGraphModel>
  </diagram>
</mxfile>
